<svg xmlns="http://www.w3.org/2000/svg" viewBox="0 0 64 64" role="img" aria-labelledby="title desc" data-design-source="asset-card-v1" data-icon-style="vib-tools-node-card-polished">
  <title id="title">InvoiceRouter Invoice Sender</title>
  <desc id="desc">Professional Vib Tools InvoiceRouter runtime icon for the Invoice Sender n8n node, inspired by the Version 1.0 node card asset style.</desc>
  <defs>
    <linearGradient id="card" x1="8" y1="6" x2="56" y2="58" gradientUnits="userSpaceOnUse">
      <stop stop-color="#FFFFFF"/>
      <stop offset="1" stop-color="#F5F3FF"/>
    </linearGradient>
    <linearGradient id="border" x1="8" y1="6" x2="56" y2="58" gradientUnits="userSpaceOnUse">
      <stop stop-color="#8B5CF6"/>
      <stop offset="1" stop-color="#5B21B6"/>
    </linearGradient>
    <linearGradient id="footer" x1="8" y1="48" x2="56" y2="58" gradientUnits="userSpaceOnUse">
      <stop stop-color="#7C3AED"/>
      <stop offset="1" stop-color="#5B21B6"/>
    </linearGradient>
    <filter id="shadow" x="-20%" y="-20%" width="140%" height="150%">
      <feDropShadow dx="0" dy="2" stdDeviation="1.8" flood-color="#312E81" flood-opacity=".22"/>
    </filter>
  </defs>
  <circle cx="8" cy="32" r="4.1" fill="#6D28D9"/>
  <circle cx="56" cy="32" r="4.1" fill="#6D28D9"/>
  <rect x="9.5" y="6.5" width="45" height="51" rx="8.5" fill="url(#card)" stroke="url(#border)" stroke-width="2.5" filter="url(#shadow)"/>
  <rect x="9.5" y="48" width="45" height="9.8" rx="5" fill="url(#footer)"/>
  <circle cx="24" cy="53" r="2.4" fill="#22C55E"/>
  <circle cx="32" cy="53" r="2.4" fill="#FACC15"/>
  <circle cx="40" cy="53" r="2.4" fill="#EF4444"/>
  <g stroke-linecap="round" stroke-linejoin="round">
  <g class="sparkles" fill="#FACC15"><circle cx="17" cy="16" r="1"/><circle cx="48" cy="38" r="1.2"/><path d="M42 14h4M44 12v4" stroke="#FACC15" stroke-width="1.4" stroke-linecap="round"/></g>
  <path d="M20 36l-5 11 11-5 20-20c2-2 2-5 0-7s-5-2-7 0z" fill="#8B5CF6" stroke="#5B21B6" stroke-width="2" stroke-linejoin="round"/>
  <path d="M36 18l10 10" stroke="#FFFFFF" stroke-width="2.2" stroke-linecap="round"/>
  <path d="M20 36l6 6" stroke="#FFFFFF" stroke-width="2" stroke-linecap="round"/>
  <rect x="15" y="14" width="17" height="22" rx="3" fill="#FFFFFF" stroke="#5B21B6" stroke-width="2"/>
  <path d="M19 20h9M19 25h8M19 30h6" stroke="#5B21B6" stroke-width="1.8" stroke-linecap="round"/>
  <circle cx="33" cy="42" r="5" fill="#22C55E" stroke="#FFFFFF" stroke-width="1.6"/>
  <path d="M31 42l2 2 4-5" fill="none" stroke="#FFFFFF" stroke-width="1.7" stroke-linecap="round" stroke-linejoin="round"/>
  </g>
</svg>
